HIERARCHY
ROOT joint_Root
{
	OFFSET 0.0 0.0 0.0
	CHANNELS 6 Xposition Yposition Zposition Zrotation Xrotation Yrotation 
	JOINT Hips
	{
		OFFSET 4.5925 91.4895 -427.239
		CHANNELS 6 Xposition Yposition Zposition Zrotation Xrotation Yrotation 
		JOINT Spine
		{
			OFFSET 15.7357 0.0 0.0
			CHANNELS 6 Xposition Yposition Zposition Zrotation Xrotation Yrotation 
			JOINT Chest
			{
				OFFSET 8.98455 -0.406207 0.0
				CHANNELS 6 Xposition Yposition Zposition Zrotation Xrotation Yrotation 
				JOINT Neck
				{
					OFFSET 16.3773 0.0 0.0
					CHANNELS 6 Xposition Yposition Zposition Zrotation Xrotation Yrotation 
					JOINT Head
					{
						OFFSET 6.45672 0.0 0.0
						CHANNELS 6 Xposition Yposition Zposition Zrotation Xrotation Yrotation 
						End Site
						{
							OFFSET 0.0 0.0 0.0
						}
					}
				}
				JOINT Shoulder_L
				{
					OFFSET 12.9942 -0.242716 4.98039
					CHANNELS 6 Xposition Yposition Zposition Zrotation Xrotation Yrotation 
					JOINT UpperArm_L
					{
						OFFSET 5.34809 0.0 0.0
						CHANNELS 6 Xposition Yposition Zposition Zrotation Xrotation Yrotation 
						JOINT LowerArm_L
						{
							OFFSET 24.3286 1.87007e-05 0.0
							CHANNELS 6 Xposition Yposition Zposition Zrotation Xrotation Yrotation 
							JOINT Hand_L
							{
								OFFSET 22.2916 0.0 0.0
								CHANNELS 6 Xposition Yposition Zposition Zrotation Xrotation Yrotation 
								End Site
								{
									OFFSET 0.0 0.0 0.0
								}
							}
						}
					}
				}
				JOINT Shoulder_R
				{
					OFFSET 12.9945 -0.242716 -4.98039
					CHANNELS 6 Xposition Yposition Zposition Zrotation Xrotation Yrotation 
					JOINT UpperArm_R
					{
						OFFSET -5.34813 0.0 0.0
						CHANNELS 6 Xposition Yposition Zposition Zrotation Xrotation Yrotation 
						JOINT LowerArm_R
						{
							OFFSET -24.3289 0.000322201 0.0
							CHANNELS 6 Xposition Yposition Zposition Zrotation Xrotation Yrotation 
							JOINT Hand_R
							{
								OFFSET -22.2915 -0.000108084 0.0
								CHANNELS 6 Xposition Yposition Zposition Zrotation Xrotation Yrotation 
								End Site
								{
									OFFSET 0.0 0.0 0.0
								}
							}
						}
					}
				}
			}
		}
		JOINT UpperLeg_L
		{
			OFFSET -2.19248 -6.46944 0.0
			CHANNELS 6 Xposition Yposition Zposition Zrotation Xrotation Yrotation 
			JOINT LowerLeg_L
			{
				OFFSET 39.0811 0.0 -1.23785e-05
				CHANNELS 6 Xposition Yposition Zposition Zrotation Xrotation Yrotation 
				JOINT Foot_L
				{
					OFFSET 40.9854 0.0 -1.26872e-05
					CHANNELS 6 Xposition Yposition Zposition Zrotation Xrotation Yrotation 
					JOINT Toes_L
					{
						OFFSET 11.7543 0.0 0.0
						CHANNELS 6 Xposition Yposition Zposition Zrotation Xrotation Yrotation 
						End Site
						{
							OFFSET 0.0 0.0 0.0
						}
					}
				}
			}
		}
		JOINT UpperLeg_R
		{
			OFFSET -2.19251 6.46944 0.0
			CHANNELS 6 Xposition Yposition Zposition Zrotation Xrotation Yrotation 
			JOINT LowerLeg_R
			{
				OFFSET -39.0811 -0.00228153 -0.0401928
				CHANNELS 6 Xposition Yposition Zposition Zrotation Xrotation Yrotation 
				JOINT Foot_R
				{
					OFFSET -40.9854 0.0 0.0
					CHANNELS 6 Xposition Yposition Zposition Zrotation Xrotation Yrotation 
					JOINT Toes_R
					{
						OFFSET -11.7543 0.0 0.0
						CHANNELS 6 Xposition Yposition Zposition Zrotation Xrotation Yrotation 
						End Site
						{
							OFFSET 0.0 0.0 0.0
						}
					}
				}
			}
		}
	}
}
MOTION
Frames:	8
Frame Time:	0.0333333
0.000000 0.000000 0.000000 0.000000 0.000000 -0.000000 3.002160 84.301000 -51.829800 92.386400 -8.998020 5.310560 15.735700 0.000005 -0.000001 112.352000 82.198800 -114.979000 8.984550 -0.406207 -0.000000 6.833900 5.935750 -5.605520 16.377300 -0.000001 -0.000001 0.734092 -2.618850 1.598600 6.456720 -0.000001 -0.000000 -5.989600 -7.415980 6.189510 12.994200 -0.242716 4.980390 -93.041500 6.848670 -65.983400 5.348090 -0.000007 -0.000001 -61.203800 13.167200 2.573890 24.328600 0.000019 0.000005 12.373600 -1.851980 -98.381400 22.291600 -0.000001 0.000005 7.363080 5.503310 -6.667310 12.994500 -0.242716 -4.980390 88.581400 10.299700 -82.114300 -5.348130 -0.000001 -0.000004 -69.283200 34.615700 -2.595720 -24.328900 0.000322 -0.000009 -9.440140 -0.553838 -86.671300 -22.291500 -0.000108 -0.000004 17.814500 5.670730 -17.525600 -2.192480 -6.469440 -0.000000 177.548000 -8.231380 -29.016200 39.081100 -0.000007 -0.000012 -0.407069 0.284011 55.097600 40.985400 -0.000006 -0.000013 0.764407 -3.019560 -71.591200 11.754300 -0.000000 0.000003 -0.000060 -0.000661 -16.603100 -2.192510 6.469440 -0.000001 163.214000 7.733630 -178.822000 -39.081100 -0.002282 -0.040193 0.439683 -0.217841 63.478700 -40.985400 0.000008 0.000006 7.074420 4.320390 -25.540700 -11.754300 -0.000006 -0.000006 -0.021739 -0.176736 -23.797300
0.000000 0.000000 0.000000 0.000000 0.000000 -0.000000 3.451980 84.661400 -46.631000 92.319300 -6.524970 5.204010 15.735700 0.000005 -0.000001 103.218000 82.629600 -105.745000 8.984550 -0.406207 -0.000000 6.673010 3.383990 -5.247330 16.377300 -0.000001 -0.000001 0.268142 -2.641560 1.081120 6.456720 -0.000001 -0.000000 -6.102590 -6.864750 8.203500 12.994200 -0.242716 4.980390 -92.254100 5.349860 -67.114100 5.348090 -0.000007 -0.000001 -67.559200 18.129300 -7.233580 24.328600 0.000019 0.000005 17.126200 -3.379690 -100.829000 22.291600 -0.000001 0.000005 7.105020 5.494210 -6.302930 12.994500 -0.242716 -4.980390 88.340000 10.096900 -80.613000 -5.348130 -0.000001 -0.000004 -69.634500 33.318400 9.328020 -24.328900 0.000322 -0.000009 -20.451700 1.108720 -92.958300 -22.291500 -0.000108 -0.000004 15.695100 5.670350 -17.417400 -2.192480 -6.469440 -0.000000 177.058000 -8.355810 -24.972100 39.081100 -0.000007 -0.000012 -0.413585 0.290298 54.935700 40.985400 -0.000006 -0.000013 2.118990 -1.102630 -75.542800 11.754300 -0.000000 0.000003 -0.000098 -0.001014 -16.616500 -2.192510 6.469440 -0.000001 165.619000 6.570530 174.916000 -39.081100 -0.002282 -0.040193 0.405521 -0.128088 72.345200 -40.985400 0.000008 0.000006 6.012370 -0.787308 -29.184200 -11.754300 -0.000006 -0.000006 -0.022689 -0.181751 -24.004200
0.000000 0.000000 0.000000 0.000000 0.000000 -0.000000 3.571070 86.114700 -41.702100 91.073900 -3.622310 3.846080 15.735700 0.000005 -0.000001 86.902100 83.322600 -88.727300 8.984550 -0.406207 -0.000000 5.561220 -0.684948 -3.612890 16.377300 -0.000001 -0.000001 0.301070 -2.278830 0.575974 6.456720 -0.000001 -0.000000 -6.792150 -3.592110 7.209210 12.994200 -0.242716 4.980390 -91.100600 2.871380 -69.020800 5.348090 -0.000007 -0.000001 -67.496100 25.013100 -15.047300 24.328600 0.000019 0.000005 12.553100 -3.886800 -106.940000 22.291600 -0.000001 0.000005 8.304260 5.485910 -5.976010 12.994500 -0.242716 -4.980390 88.325900 7.947020 -78.062600 -5.348130 -0.000001 -0.000004 -67.902000 36.945200 15.955000 -24.328900 0.000322 -0.000009 -20.606900 3.647130 -99.605400 -22.291500 -0.000108 -0.000004 12.922200 5.660980 -16.159400 -2.192480 -6.469440 -0.000000 178.227000 -7.888850 -20.205500 39.081100 -0.000007 -0.000012 -0.347943 0.285241 50.656200 40.985400 -0.000006 -0.000013 3.133440 1.220830 -77.220000 11.754300 -0.000000 0.000003 -0.000099 -0.001020 -16.616700 -2.192510 6.469440 -0.000001 170.096000 6.288640 168.466000 -39.081100 -0.002282 -0.040193 0.256004 -0.058995 76.875300 -40.985400 0.000008 0.000006 9.175170 0.693000 -39.484400 -11.754300 -0.000006 -0.000006 -0.020972 -0.172615 -23.627400
0.000000 0.000000 0.000000 0.000000 0.000000 -0.000000 3.466340 88.275100 -36.275000 89.954500 -2.034330 4.534520 15.735700 0.000005 -0.000001 71.033100 82.794300 -72.217300 8.984550 -0.406207 -0.000000 5.830930 -4.652030 -2.129590 16.377300 -0.000001 -0.000001 0.280038 -1.506790 0.372075 6.456720 -0.000001 -0.000000 -6.714170 0.227536 5.975220 12.994200 -0.242716 4.980390 -90.170700 0.485915 -70.667300 5.348090 -0.000007 -0.000001 -62.067100 30.075200 -21.622700 24.328600 0.000019 0.000005 7.604240 -3.323310 -113.473000 22.291600 -0.000001 0.000005 6.769180 5.494040 -6.293490 12.994500 -0.242716 -4.980390 88.597900 5.689240 -76.129500 -5.348130 -0.000001 -0.000004 -65.555800 41.162600 18.956200 -24.328900 0.000322 -0.000009 -17.213800 4.610810 -104.546000 -22.291500 -0.000108 -0.000004 11.098900 5.646740 -14.703100 -2.192480 -6.469440 -0.000000 179.995000 -7.364100 -10.838500 39.081100 -0.000007 -0.000012 -0.284748 0.317423 41.894600 40.985400 -0.000006 -0.000013 3.163180 2.619830 -77.036000 11.754300 -0.000000 0.000003 -0.000066 -0.000721 -16.605400 -2.192510 6.469440 -0.000001 173.916000 4.734380 164.885000 -39.081100 -0.002282 -0.040193 0.157086 -0.039616 75.579900 -40.985400 0.000008 0.000006 7.138090 -2.019550 -44.647300 -11.754300 -0.000006 -0.000006 -0.020980 -0.172658 -23.629100
0.000000 0.000000 0.000000 0.000000 0.000000 -0.000000 3.201720 90.410800 -31.512400 87.540200 -1.064030 1.948300 15.735700 0.000005 -0.000001 56.958600 82.928100 -56.929200 8.984550 -0.406207 -0.000000 4.123140 -7.701100 0.336486 16.377300 -0.000001 -0.000001 0.333610 -0.693460 0.396875 6.456720 -0.000001 -0.000000 -6.123040 3.471620 5.211990 12.994200 -0.242716 4.980390 -89.170900 -2.529820 -71.843300 5.348090 -0.000007 -0.000001 -56.445700 34.018500 -27.080700 24.328600 0.000019 0.000005 9.945810 -5.338020 -117.945000 22.291600 -0.000001 0.000005 5.417770 5.474330 -5.530950 12.994500 -0.242716 -4.980390 89.202500 2.892940 -74.576800 -5.348130 -0.000001 -0.000004 -64.273800 43.701700 20.858600 -24.328900 0.000322 -0.000009 -17.071200 5.606590 -107.648000 -22.291500 -0.000108 -0.000004 10.052300 5.634850 -13.707300 -2.192480 -6.469440 -0.000000 -177.374000 -6.560920 -4.374430 39.081100 -0.000007 -0.000012 -0.163194 0.274580 30.724900 40.985400 -0.000006 -0.000013 3.355880 3.122630 -74.913100 11.754300 -0.000000 0.000003 -0.453398 -0.569453 -16.229500 -2.192510 6.469440 -0.000001 179.264000 3.259030 158.807000 -39.081100 -0.002282 -0.040193 0.060323 -0.020813 70.008400 -40.985400 0.000008 0.000006 8.119920 -5.350060 -49.481400 -11.754300 -0.000006 -0.000006 -0.020125 -0.167978 -23.436200
0.000000 0.000000 0.000000 0.000000 0.000000 -0.000000 3.034160 92.059000 -27.146200 86.026400 -0.570090 -1.252670 15.735700 0.000005 -0.000001 45.479700 83.020800 -44.436600 8.984550 -0.406207 -0.000000 2.309160 -9.829680 2.286670 16.377300 -0.000001 -0.000001 0.163246 0.144061 0.523809 6.456720 -0.000001 -0.000000 -5.812920 5.886400 4.865100 12.994200 -0.242716 4.980390 -88.156900 -5.907320 -72.635900 5.348090 -0.000007 -0.000001 -51.441200 36.630300 -32.186600 24.328600 0.000019 0.000005 10.140600 -6.075040 -120.614000 22.291600 -0.000001 0.000005 4.226040 5.463790 -5.139440 12.994500 -0.242716 -4.980390 89.995300 0.016095 -73.217900 -5.348130 -0.000001 -0.000004 -63.566500 44.115500 21.801800 -24.328900 0.000322 -0.000009 -14.655100 5.519930 -110.196000 -22.291500 -0.000108 -0.000004 9.959690 5.626610 -13.086900 -2.192480 -6.469440 -0.000000 -175.908000 -7.739320 -1.097730 39.081100 -0.000007 -0.000012 0.011277 -0.026946 22.710200 40.985400 -0.000006 -0.000013 5.761210 4.243230 -69.160500 11.754300 -0.000000 0.000003 -1.959490 -2.358720 -19.116300 -2.192510 6.469440 -0.000001 -177.418000 1.680070 153.132000 -39.081100 -0.002282 -0.040193 0.015796 -0.007002 60.941600 -40.985400 0.000008 0.000006 7.633110 -7.737150 -53.340000 -11.754300 -0.000006 -0.000006 -0.020443 -0.169730 -23.508500
0.000000 0.000000 0.000000 0.000000 0.000000 -0.000000 3.034240 92.863600 -22.774400 86.142000 0.291576 -3.222180 15.735700 0.000005 -0.000001 37.867200 82.691100 -36.393700 8.984550 -0.406207 -0.000000 1.390940 -11.616400 3.093890 16.377300 -0.000001 -0.000001 -0.210370 0.728967 0.883369 6.456720 -0.000001 -0.000000 -6.061580 7.668910 4.697280 12.994200 -0.242716 4.980390 -87.219500 -9.369750 -73.388600 5.348090 -0.000007 -0.000001 -47.047400 38.189000 -36.688900 24.328600 0.000019 0.000005 9.242350 -5.891310 -122.243000 22.291600 -0.000001 0.000005 4.494170 5.454700 -4.809650 12.994500 -0.242716 -4.980390 90.749200 -2.274670 -71.767200 -5.348130 -0.000001 -0.000004 -63.014600 43.128100 21.852700 -24.328900 0.000322 -0.000009 -12.647200 5.173510 -111.893000 -22.291500 -0.000108 -0.000004 10.071900 5.618180 -12.496000 -2.192480 -6.469440 -0.000000 -175.066000 -11.315100 1.041790 39.081100 -0.000007 -0.000012 0.004054 -0.011582 19.290900 40.985400 -0.000006 -0.000013 5.629770 9.054700 -64.628200 11.754300 -0.000000 0.000003 -0.277584 -0.390773 -21.369000 -2.192510 6.469440 -0.000001 -176.543000 1.930080 150.063000 -39.081100 -0.002282 -0.040193 0.015321 -0.010400 49.252200 -40.985400 0.000008 0.000006 6.942560 -6.779370 -56.445500 -11.754300 -0.000006 -0.000006 -0.021190 -0.173790 -23.675800
0.000000 0.000000 0.000000 0.000000 0.000000 -0.000000 3.087980 92.820200 -18.257000 87.278100 1.610580 -4.039900 15.735700 0.000005 -0.000001 34.398700 82.162800 -32.917600 8.984550 -0.406207 -0.000000 1.299030 -13.011200 3.117590 16.377300 -0.000001 -0.000001 -0.668157 0.913438 1.390750 6.456720 -0.000001 -0.000000 -6.910620 8.664520 4.668420 12.994200 -0.242716 4.980390 -86.536300 -12.369300 -74.221200 5.348090 -0.000007 -0.000001 -43.052200 38.628300 -40.736300 24.328600 0.000019 0.000005 8.394780 -5.514180 -123.070000 22.291600 -0.000001 0.000005 4.490610 5.448000 -4.567950 12.994500 -0.242716 -4.980390 91.283800 -3.611940 -70.419000 -5.348130 -0.000001 -0.000004 -62.997300 41.139500 21.790900 -24.328900 0.000322 -0.000009 -11.845400 5.051510 -112.774000 -22.291500 -0.000108 -0.000004 10.040400 5.609990 -11.958000 -2.192480 -6.469440 -0.000000 -174.605000 -14.374400 3.043940 39.081100 -0.000007 -0.000012 -0.001424 0.004176 18.828200 40.985400 -0.000006 -0.000013 5.108970 14.451800 -61.722400 11.754300 -0.000000 0.000003 -0.031500 -0.224270 -25.768400 -2.192510 6.469440 -0.000001 -176.416000 5.256550 148.955000 -39.081100 -0.002282 -0.040193 0.018292 -0.020090 36.756400 -40.985400 0.000008 0.000006 4.078350 -1.068630 -59.612900 -11.754300 -0.000006 -0.000006 -0.022071 -0.178499 -23.870000
